<svg id="visual" viewBox="0 0 900 600" width="900" height="600" xmlns="http://www.w3.org/2000/svg" xmlns:xlink="http://www.w3.org/1999/xlink" version="1.1"><rect x="0" y="0" width="900" height="600" fill="#001220"></rect><defs><linearGradient id="grad1_0" x1="33.3%" y1="100%" x2="100%" y2="0%"><stop offset="20%" stop-color="#001220" stop-opacity="1"></stop><stop offset="80%" stop-color="#001220" stop-opacity="1"></stop></linearGradient></defs><defs><linearGradient id="grad2_0" x1="0%" y1="100%" x2="66.7%" y2="0%"><stop offset="20%" stop-color="#001220" stop-opacity="1"></stop><stop offset="80%" stop-color="#001220" stop-opacity="1"></stop></linearGradient></defs><g transform="translate(900, 600)"><path d="M-432.7 0C-402.8 -48.9 -372.9 -97.8 -350.2 -145C-327.4 -192.3 -311.7 -237.9 -283.5 -283.5C-255.4 -329.2 -214.9 -374.9 -165.6 -399.7C-116.2 -424.6 -58.1 -428.6 0 -432.7L0 0Z" fill="#02e002"></path></g><g transform="translate(0, 0)"><path d="M432.7 0C414 52.8 395.3 105.6 373.2 154.6C351.2 203.6 325.9 248.8 292 292C258.1 335.3 215.7 376.6 165.6 399.7C115.5 422.8 57.7 427.8 0 432.7L0 0Z" fill="#02e002"></path></g></svg>