<svg id="visual" viewBox="0 0 900 600" width="900" height="600" xmlns="http://www.w3.org/2000/svg" xmlns:xlink="http://www.w3.org/1999/xlink" version="1.1"><rect x="0" y="0" width="900" height="600" fill="#001220"></rect><defs><linearGradient id="grad1_0" x1="33.3%" y1="100%" x2="100%" y2="0%"><stop offset="20%" stop-color="#001220" stop-opacity="1"></stop><stop offset="80%" stop-color="#001220" stop-opacity="1"></stop></linearGradient></defs><defs><linearGradient id="grad2_0" x1="0%" y1="100%" x2="66.7%" y2="0%"><stop offset="20%" stop-color="#001220" stop-opacity="1"></stop><stop offset="80%" stop-color="#001220" stop-opacity="1"></stop></linearGradient></defs><g transform="translate(900, 600)"><path d="M-351.5 0C-335.3 -57.1 -319.1 -114.2 -291.9 -168.5C-264.6 -222.8 -226.3 -274.4 -175.8 -304.4C-125.3 -334.5 -62.6 -343 0 -351.5L0 0Z" fill="#02e002"></path></g><g transform="translate(0, 0)"><path d="M351.5 0C345.4 66.8 339.3 133.6 304.4 175.8C269.6 217.9 206 235.5 150.5 260.7C95 285.9 47.5 318.7 0 351.5L0 0Z" fill="#02e002"></path></g></svg>